<svg xmlns="http://www.w3.org/2000/svg" width="95.116" height="72" viewBox="0 0 95.116 72"><defs><style>.a{fill:none;}.b{fill:#fff;}</style></defs><path class="a" d="M8.891,67.254h0a4.624,4.624,0,0,1,4.624-4.743,4.842,4.842,0,0,1,3.421,1.215l-.661.786a3.9,3.9,0,0,0-2.827-1.1,3.587,3.587,0,0,0-3.488,3.765h0a3.547,3.547,0,0,0,3.633,3.811,4.326,4.326,0,0,0,2.642-.918V67.789H13.448v-.878h3.785v3.653A5.555,5.555,0,0,1,13.554,72a4.5,4.5,0,0,1-4.663-4.743Z"/><path class="a" d="M24.968,62.637h3.963a3.613,3.613,0,0,1,2.6.918,2.536,2.536,0,0,1,.694,1.836h0a2.637,2.637,0,0,1-2.49,2.642l2.814,3.745H31.282L28.64,68.212H26v3.567h-1.03Zm3.851,4.676c1.374,0,2.358-.707,2.358-1.882h0c0-1.129-.865-1.81-2.345-1.81H26V67.34Z"/><path class="a" d="M39.433,67.254h0a4.676,4.676,0,1,1,9.353,0h0a4.678,4.678,0,1,1-9.353,0Zm8.276,0h0A3.646,3.646,0,0,0,44.1,63.41,3.606,3.606,0,0,0,40.5,67.175h0a3.646,3.646,0,0,0,3.62,3.785,3.6,3.6,0,0,0,3.587-3.706Z"/><path class="a" d="M56.23,67.974V62.637h1.03v5.284c0,1.982,1.05,3.091,2.807,3.091s2.761-1.024,2.761-3.025v-5.35h1.037v5.284c0,2.642-1.532,4.062-3.824,4.062S56.23,70.563,56.23,67.974Z"/><path class="a" d="M71.719,62.637h3.428c2.074,0,3.435,1.1,3.435,2.913h0c0,1.982-1.651,3-3.606,3H72.75v3.237h-1.03Zm3.3,4.994c1.519,0,2.517-.812,2.517-1.982h0c0-1.321-.984-1.982-2.464-1.982H72.756V67.7Z"/><path class="a" d="M63.516,52.181h4.835V15.245H63.516V13.924H78.047c3.864,0,6.7.086,8.441.568a14.677,14.677,0,0,1,4.531,2.081,9.974,9.974,0,0,1,3,3.237,10.707,10.707,0,0,1,1.1,4.776A7.675,7.675,0,0,1,93.873,28.9a10.681,10.681,0,0,1-3.3,3.184c-1.367.865-4.492,2.946-12.464,2.946H73.734V52.181H78.6V53.5H63.516ZM73.74,33.687H77.77c1.433,0,6.935-.31,8.9-2.028,1.625-1.427,2.239-3.963,2.239-7.094a16.685,16.685,0,0,0-.542-4.591,6.546,6.546,0,0,0-1.7-2.939A6.605,6.605,0,0,0,83.642,15.5c-1.81-.443-9.908-.271-9.908-.271Z"/><path class="a" d="M35.536,5.885c0,3.25-2.741,5.885-2.741,5.885s-2.741-2.642-2.741-5.885S32.795,0,32.795,0,35.536,2.642,35.536,5.885Z"/><path class="a" d="M29.274,10.324c3.455,2.477,3.144,7.457,3.144,7.457s-.614-2.642-4.1-4.776a11.7,11.7,0,0,0-5.865-1.473h-3.3S24.875,7.173,29.274,10.324Z"/><path class="a" d="M36.329,10.324c-3.448,2.477-3.144,7.457-3.144,7.457s.621-2.642,4.1-4.776a11.671,11.671,0,0,1,5.892-1.473h3.3S40.721,7.173,36.329,10.324Z"/><path class="a" d="M59.638,43.033a.35.35,0,0,0-.324.251A17.306,17.306,0,0,1,57.2,48.218a9.393,9.393,0,0,1-2.642,2.721,6.975,6.975,0,0,1-2.728,1.05,17.709,17.709,0,0,1-2.424.192h-12.9L59.691,13.937H41.857c-8.217,0-8.97,8.052-9.029,10.02-.059-1.982-.826-10.02-9.089-10.02H0v10.43H.594a17.6,17.6,0,0,1,2.186-5.152,9.426,9.426,0,0,1,2.642-2.728,6.949,6.949,0,0,1,2.721-1.05,17.834,17.834,0,0,1,2.424-.192H13.7V52.181H8.877V53.5H23.931V52.181H19.1V15.245h3.124a17.834,17.834,0,0,1,2.431.192,6.975,6.975,0,0,1,2.728,1.077,9.511,9.511,0,0,1,2.642,2.728,17.781,17.781,0,0,1,2.186,5.152h1.176A14.977,14.977,0,0,1,36.9,17.57a9.465,9.465,0,0,1,6.8-2.3h9.525L30.14,53.5h29.5a.337.337,0,0,0,.343-.337V43.376a.343.343,0,0,0-.343-.343Z"/><path class="b" d="M8.891,67.254h0a4.624,4.624,0,0,1,4.624-4.743,4.842,4.842,0,0,1,3.421,1.215l-.661.786a3.9,3.9,0,0,0-2.827-1.1,3.587,3.587,0,0,0-3.488,3.765h0a3.547,3.547,0,0,0,3.633,3.811,4.326,4.326,0,0,0,2.642-.918V67.789H13.448v-.878h3.785v3.653A5.555,5.555,0,0,1,13.554,72a4.5,4.5,0,0,1-4.663-4.743Z"/><path class="b" d="M24.968,62.637h3.963a3.613,3.613,0,0,1,2.6.918,2.536,2.536,0,0,1,.694,1.836h0a2.637,2.637,0,0,1-2.49,2.642l2.814,3.745H31.282L28.64,68.212H26v3.567h-1.03Zm3.851,4.676c1.374,0,2.358-.707,2.358-1.882h0c0-1.129-.865-1.81-2.345-1.81H26V67.34Z"/><path class="b" d="M39.433,67.254h0a4.676,4.676,0,1,1,9.353,0h0a4.678,4.678,0,1,1-9.353,0Zm8.276,0h0A3.646,3.646,0,0,0,44.1,63.41,3.606,3.606,0,0,0,40.5,67.175h0a3.646,3.646,0,0,0,3.62,3.785,3.6,3.6,0,0,0,3.587-3.706Z"/><path class="b" d="M56.23,67.974V62.637h1.03v5.284c0,1.982,1.05,3.091,2.807,3.091s2.761-1.024,2.761-3.025v-5.35h1.037v5.284c0,2.642-1.532,4.062-3.824,4.062S56.23,70.563,56.23,67.974Z"/><path class="b" d="M71.719,62.637h3.428c2.074,0,3.435,1.1,3.435,2.913h0c0,1.982-1.651,3-3.606,3H72.75v3.237h-1.03Zm3.3,4.994c1.519,0,2.517-.812,2.517-1.982h0c0-1.321-.984-1.982-2.464-1.982H72.756V67.7Z"/><path class="b" d="M63.516,52.181h4.835V15.245H63.516V13.924H78.047c3.864,0,6.7.086,8.441.568a14.677,14.677,0,0,1,4.531,2.081,9.974,9.974,0,0,1,3,3.237,10.707,10.707,0,0,1,1.1,4.776A7.675,7.675,0,0,1,93.873,28.9a10.681,10.681,0,0,1-3.3,3.184c-1.367.865-4.492,2.946-12.464,2.946H73.734V52.181H78.6V53.5H63.516ZM73.74,33.687H77.77c1.433,0,6.935-.31,8.9-2.028,1.625-1.427,2.239-3.963,2.239-7.094a16.685,16.685,0,0,0-.542-4.591,6.546,6.546,0,0,0-1.7-2.939A6.605,6.605,0,0,0,83.642,15.5c-1.81-.443-9.908-.271-9.908-.271Z"/><path class="b" d="M35.536,5.885c0,3.25-2.741,5.885-2.741,5.885s-2.741-2.642-2.741-5.885S32.795,0,32.795,0,35.536,2.642,35.536,5.885Z"/><path class="b" d="M29.274,10.324c3.455,2.477,3.144,7.457,3.144,7.457s-.614-2.642-4.1-4.776a11.7,11.7,0,0,0-5.865-1.473h-3.3S24.875,7.173,29.274,10.324Z"/><path class="b" d="M36.329,10.324c-3.448,2.477-3.144,7.457-3.144,7.457s.621-2.642,4.1-4.776a11.671,11.671,0,0,1,5.892-1.473h3.3S40.721,7.173,36.329,10.324Z"/><path class="b" d="M59.638,43.033a.35.35,0,0,0-.324.251A17.306,17.306,0,0,1,57.2,48.218a9.393,9.393,0,0,1-2.642,2.721,6.975,6.975,0,0,1-2.728,1.05,17.709,17.709,0,0,1-2.424.192h-12.9L59.691,13.937H41.857c-8.217,0-8.97,8.052-9.029,10.02-.059-1.982-.826-10.02-9.089-10.02H0v10.43H.594a17.6,17.6,0,0,1,2.186-5.152,9.426,9.426,0,0,1,2.642-2.728,6.949,6.949,0,0,1,2.721-1.05,17.834,17.834,0,0,1,2.424-.192H13.7V52.181H8.877V53.5H23.931V52.181H19.1V15.245h3.124a17.834,17.834,0,0,1,2.431.192,6.975,6.975,0,0,1,2.728,1.077,9.511,9.511,0,0,1,2.642,2.728,17.781,17.781,0,0,1,2.186,5.152h1.176A14.977,14.977,0,0,1,36.9,17.57a9.465,9.465,0,0,1,6.8-2.3h9.525L30.14,53.5h29.5a.337.337,0,0,0,.343-.337V43.376a.343.343,0,0,0-.343-.343Z"/></svg>