<svg width="220" height="48" viewBox="0 0 220 48" fill="none" xmlns="http://www.w3.org/2000/svg">
  <!-- Mark: bracket + dot -->
  <path d="M15 9 L7 24 L15 39" stroke="#0099D9" stroke-width="3.5" stroke-linecap="round" stroke-linejoin="round"/>
  <path d="M33 9 L41 24 L33 39" stroke="#0099D9" stroke-width="3.5" stroke-linecap="round" stroke-linejoin="round"/>
  <circle cx="24" cy="24" r="6" fill="#0099D9"/>
  <circle cx="24" cy="24" r="10" stroke="#0099D9" stroke-width="1" opacity="0.2"/>
  <!-- Wordmark: Tru (blue) + Video (white) — rendered as paths for font independence -->
  <g transform="translate(54, 12)">
    <!-- T -->
    <path d="M0 2h18v5H12.5v19h-7V7H0z" fill="#0099D9"/>
    <!-- r -->
    <path d="M20 10h6v4.5c1.2-3 3.2-4.8 6-5v6c-3.6.2-5.5 2-5.5 5.5V26h-6.5z" fill="#0099D9"/>
    <!-- u -->
    <path d="M34 10h6.5v9.5c0 2 1 3 2.8 3s2.8-1 2.8-3V10h6.5v16h-6.5v-2.2c-1.3 1.7-3.2 2.7-5.6 2.7-3.8 0-6.5-2.5-6.5-7z" fill="#0099D9"/>
    <!-- V -->
    <path d="M58 2h7.2l6.5 17.5L78.2 2h7.2L75 26h-7z" fill="#FFFFFF"/>
    <!-- i -->
    <path d="M87 1h6.5v5H87zm0 9h6.5v16H87z" fill="#FFFFFF"/>
    <!-- d -->
    <path d="M97 1h6.5v11.2c1.3-1.7 3.2-2.7 5.6-2.7 4.5 0 7.8 3.5 7.8 8.5s-3.3 8.5-7.8 8.5c-2.4 0-4.3-1-5.6-2.7V26H97zm10.5 14.5c0-2.2-1.5-3.8-3.5-3.8s-3.5 1.6-3.5 3.8 1.5 3.8 3.5 3.8 3.5-1.6 3.5-3.8z" fill="#FFFFFF"/>
    <!-- e -->
    <path d="M120 18c0-5 3.8-8.5 8.5-8.5 4.8 0 8.2 3.3 8.2 8.8v1.5h-10.5c.5 2 2 3 4 3 1.7 0 3-.6 4.2-1.8l3.5 3.2c-1.8 2-4.5 3.3-7.8 3.3-5.2 0-10.1-3.2-10.1-9.5zm10.8-2.5c-.3-1.8-1.5-3-3.3-3s-3 1.2-3.3 3z" fill="#FFFFFF"/>
    <!-- o -->
    <path d="M140 18c0-5 4-8.5 8.8-8.5s8.8 3.5 8.8 8.5-4 8.5-8.8 8.5S140 23 140 18zm11.5 0c0-2.2-1.2-3.8-2.7-3.8s-2.7 1.6-2.7 3.8 1.2 3.8 2.7 3.8 2.7-1.6 2.7-3.8z" fill="#FFFFFF"/>
  </g>
</svg>
